<mxfile host="app.diagrams.net" modified="2023-09-24T19:33:06.113Z" agent="Mozilla/5.0 (Windows NT 10.0; Win64; x64) AppleWebKit/537.36 (KHTML, like Gecko) Chrome/116.0.0.0 Safari/537.36" etag="6h8BBby9-yfxfswDfyYh" version="21.8.0" type="device">
  <diagram name="PÃ¡gina-1" id="Z0-phJ_rjs11gpiRWPL0">
    <mxGraphModel dx="1120" dy="478" grid="1" gridSize="10" guides="1" tooltips="1" connect="1" arrows="1" fold="1" page="1" pageScale="1" pageWidth="827" pageHeight="1169" math="0" shadow="0">
      <root>
        <mxCell id="0" />
        <mxCell id="1" parent="0" />
        <mxCell id="GkLITIsvFdWkyiCTaT3H-1" value="usuarios" style="swimlane;fontStyle=1;align=center;verticalAlign=top;childLayout=stackLayout;horizontal=1;startSize=26;horizontalStack=0;resizeParent=1;resizeParentMax=0;resizeLast=0;collapsible=1;marginBottom=0;whiteSpace=wrap;html=1;" parent="1" vertex="1">
          <mxGeometry x="60" y="70" width="160" height="300" as="geometry" />
        </mxCell>
        <mxCell id="GkLITIsvFdWkyiCTaT3H-2" value="- id_usuario: int&lt;br&gt;- nome_completo: String&lt;br&gt;- CPF: String&lt;br&gt;- RG: String&lt;br&gt;- data_nascimento: Date&lt;br&gt;- email: String&lt;br&gt;- rua: String&lt;br&gt;- numero: String&lt;br&gt;- bairro: String&lt;br&gt;- cidade: String&lt;br&gt;- UF: String" style="text;strokeColor=none;fillColor=none;align=left;verticalAlign=top;spacingLeft=4;spacingRight=4;overflow=hidden;rotatable=0;points=[[0,0.5],[1,0.5]];portConstraint=eastwest;whiteSpace=wrap;html=1;" parent="GkLITIsvFdWkyiCTaT3H-1" vertex="1">
          <mxGeometry y="26" width="160" height="164" as="geometry" />
        </mxCell>
        <mxCell id="GkLITIsvFdWkyiCTaT3H-3" value="" style="line;strokeWidth=1;fillColor=none;align=left;verticalAlign=middle;spacingTop=-1;spacingLeft=3;spacingRight=3;rotatable=0;labelPosition=right;points=[];portConstraint=eastwest;strokeColor=inherit;" parent="GkLITIsvFdWkyiCTaT3H-1" vertex="1">
          <mxGeometry y="190" width="160" height="8" as="geometry" />
        </mxCell>
        <mxCell id="GkLITIsvFdWkyiCTaT3H-4" value="+ criarUsuario()&lt;br&gt;+ atualizarUsuario()&lt;br&gt;+ excluirUsuario()&lt;br&gt;+ fazerLogin()&lt;br&gt;+ setters()&lt;br&gt;+ getters()" style="text;strokeColor=none;fillColor=none;align=left;verticalAlign=top;spacingLeft=4;spacingRight=4;overflow=hidden;rotatable=0;points=[[0,0.5],[1,0.5]];portConstraint=eastwest;whiteSpace=wrap;html=1;" parent="GkLITIsvFdWkyiCTaT3H-1" vertex="1">
          <mxGeometry y="198" width="160" height="102" as="geometry" />
        </mxCell>
        <mxCell id="GkLITIsvFdWkyiCTaT3H-5" value="passagens&lt;br&gt;" style="swimlane;fontStyle=1;align=center;verticalAlign=top;childLayout=stackLayout;horizontal=1;startSize=26;horizontalStack=0;resizeParent=1;resizeParentMax=0;resizeLast=0;collapsible=1;marginBottom=0;whiteSpace=wrap;html=1;" parent="1" vertex="1">
          <mxGeometry x="334" y="60" width="160" height="310" as="geometry">
            <mxRectangle x="334" y="60" width="100" height="30" as="alternateBounds" />
          </mxGeometry>
        </mxCell>
        <mxCell id="GkLITIsvFdWkyiCTaT3H-6" value="- id_usuario: int&lt;br&gt;- id_destino: int&lt;br&gt;- local_partida: String&lt;br&gt;- data_partida: Date&lt;br&gt;- data_retorno: Date&lt;br&gt;- quantidade_passagens: int&lt;br&gt;- valor_total: double&lt;br&gt;- tipo_viagem: String&lt;br&gt;- nome_acompanhante: String&lt;br&gt;- CPF_acompanhante: String&lt;br&gt;- RG_acompanhante: String&lt;br&gt;- data_nascimento: Date&lt;br&gt;" style="text;strokeColor=none;fillColor=none;align=left;verticalAlign=top;spacingLeft=4;spacingRight=4;overflow=hidden;rotatable=0;points=[[0,0.5],[1,0.5]];portConstraint=eastwest;whiteSpace=wrap;html=1;" parent="GkLITIsvFdWkyiCTaT3H-5" vertex="1">
          <mxGeometry y="26" width="160" height="224" as="geometry" />
        </mxCell>
        <mxCell id="GkLITIsvFdWkyiCTaT3H-7" value="" style="line;strokeWidth=1;fillColor=none;align=left;verticalAlign=middle;spacingTop=-1;spacingLeft=3;spacingRight=3;rotatable=0;labelPosition=right;points=[];portConstraint=eastwest;strokeColor=inherit;" parent="GkLITIsvFdWkyiCTaT3H-5" vertex="1">
          <mxGeometry y="250" width="160" height="8" as="geometry" />
        </mxCell>
        <mxCell id="GkLITIsvFdWkyiCTaT3H-8" value="+ comprarPassagens()&lt;br&gt;+ adicionarAcompanhante()&lt;br&gt;+ consultarPassagem()" style="text;strokeColor=none;fillColor=none;align=left;verticalAlign=top;spacingLeft=4;spacingRight=4;overflow=hidden;rotatable=0;points=[[0,0.5],[1,0.5]];portConstraint=eastwest;whiteSpace=wrap;html=1;" parent="GkLITIsvFdWkyiCTaT3H-5" vertex="1">
          <mxGeometry y="258" width="160" height="52" as="geometry" />
        </mxCell>
        <mxCell id="GkLITIsvFdWkyiCTaT3H-9" value="destinos&lt;br&gt;" style="swimlane;fontStyle=1;align=center;verticalAlign=top;childLayout=stackLayout;horizontal=1;startSize=26;horizontalStack=0;resizeParent=1;resizeParentMax=0;resizeLast=0;collapsible=1;marginBottom=0;whiteSpace=wrap;html=1;" parent="1" vertex="1">
          <mxGeometry x="610" y="110" width="160" height="240" as="geometry" />
        </mxCell>
        <mxCell id="GkLITIsvFdWkyiCTaT3H-10" value="- id_destino: int&lt;br&gt;- valor: double&lt;br&gt;- pais: String&lt;br&gt;- cidade: String&lt;br&gt;- promocao: boolean" style="text;strokeColor=none;fillColor=none;align=left;verticalAlign=top;spacingLeft=4;spacingRight=4;overflow=hidden;rotatable=0;points=[[0,0.5],[1,0.5]];portConstraint=eastwest;whiteSpace=wrap;html=1;" parent="GkLITIsvFdWkyiCTaT3H-9" vertex="1">
          <mxGeometry y="26" width="160" height="84" as="geometry" />
        </mxCell>
        <mxCell id="GkLITIsvFdWkyiCTaT3H-11" value="" style="line;strokeWidth=1;fillColor=none;align=left;verticalAlign=middle;spacingTop=-1;spacingLeft=3;spacingRight=3;rotatable=0;labelPosition=right;points=[];portConstraint=eastwest;strokeColor=inherit;" parent="GkLITIsvFdWkyiCTaT3H-9" vertex="1">
          <mxGeometry y="110" width="160" height="8" as="geometry" />
        </mxCell>
        <mxCell id="GkLITIsvFdWkyiCTaT3H-12" value="+ adicionarDestino()&lt;br&gt;+ pesquisarDestino()&lt;br&gt;+ atualizarDestino()&lt;br&gt;+ removerDestino()&lt;br&gt;+ adicionarPromocao()&lt;br&gt;+ calcularDesconto()&lt;br&gt;+ setters()&lt;br&gt;+ getters()" style="text;strokeColor=none;fillColor=none;align=left;verticalAlign=top;spacingLeft=4;spacingRight=4;overflow=hidden;rotatable=0;points=[[0,0.5],[1,0.5]];portConstraint=eastwest;whiteSpace=wrap;html=1;" parent="GkLITIsvFdWkyiCTaT3H-9" vertex="1">
          <mxGeometry y="118" width="160" height="122" as="geometry" />
        </mxCell>
        <mxCell id="GkLITIsvFdWkyiCTaT3H-13" value="fale_conosco" style="swimlane;fontStyle=1;align=center;verticalAlign=top;childLayout=stackLayout;horizontal=1;startSize=26;horizontalStack=0;resizeParent=1;resizeParentMax=0;resizeLast=0;collapsible=1;marginBottom=0;whiteSpace=wrap;html=1;" parent="1" vertex="1">
          <mxGeometry x="610" y="370" width="160" height="154" as="geometry" />
        </mxCell>
        <mxCell id="GkLITIsvFdWkyiCTaT3H-14" value="- id_faleConosco: int&lt;br&gt;- nome_completo: String&lt;br&gt;- CPF: String&lt;br&gt;- email: String&lt;br&gt;- assunto_contato: String&lt;br&gt;- mensagem: String" style="text;strokeColor=none;fillColor=none;align=left;verticalAlign=top;spacingLeft=4;spacingRight=4;overflow=hidden;rotatable=0;points=[[0,0.5],[1,0.5]];portConstraint=eastwest;whiteSpace=wrap;html=1;" parent="GkLITIsvFdWkyiCTaT3H-13" vertex="1">
          <mxGeometry y="26" width="160" height="94" as="geometry" />
        </mxCell>
        <mxCell id="GkLITIsvFdWkyiCTaT3H-15" value="" style="line;strokeWidth=1;fillColor=none;align=left;verticalAlign=middle;spacingTop=-1;spacingLeft=3;spacingRight=3;rotatable=0;labelPosition=right;points=[];portConstraint=eastwest;strokeColor=inherit;" parent="GkLITIsvFdWkyiCTaT3H-13" vertex="1">
          <mxGeometry y="120" width="160" height="8" as="geometry" />
        </mxCell>
        <mxCell id="GkLITIsvFdWkyiCTaT3H-16" value="+ enviarMensagem()" style="text;strokeColor=none;fillColor=none;align=left;verticalAlign=top;spacingLeft=4;spacingRight=4;overflow=hidden;rotatable=0;points=[[0,0.5],[1,0.5]];portConstraint=eastwest;whiteSpace=wrap;html=1;" parent="GkLITIsvFdWkyiCTaT3H-13" vertex="1">
          <mxGeometry y="128" width="160" height="26" as="geometry" />
        </mxCell>
        <mxCell id="GkLITIsvFdWkyiCTaT3H-20" value="" style="endArrow=none;html=1;edgeStyle=orthogonalEdgeStyle;rounded=0;exitX=1;exitY=0.549;exitDx=0;exitDy=0;exitPerimeter=0;entryX=0;entryY=0.5;entryDx=0;entryDy=0;" parent="1" source="GkLITIsvFdWkyiCTaT3H-2" target="GkLITIsvFdWkyiCTaT3H-6" edge="1">
          <mxGeometry relative="1" as="geometry">
            <mxPoint x="230" y="190" as="sourcePoint" />
            <mxPoint x="390" y="190" as="targetPoint" />
            <Array as="points">
              <mxPoint x="220" y="190" />
              <mxPoint x="334" y="190" />
            </Array>
          </mxGeometry>
        </mxCell>
        <mxCell id="GkLITIsvFdWkyiCTaT3H-21" value="1" style="edgeLabel;resizable=0;html=1;align=left;verticalAlign=bottom;" parent="GkLITIsvFdWkyiCTaT3H-20" connectable="0" vertex="1">
          <mxGeometry x="-1" relative="1" as="geometry">
            <mxPoint y="4" as="offset" />
          </mxGeometry>
        </mxCell>
        <mxCell id="GkLITIsvFdWkyiCTaT3H-22" value="n" style="edgeLabel;resizable=0;html=1;align=right;verticalAlign=bottom;" parent="GkLITIsvFdWkyiCTaT3H-20" connectable="0" vertex="1">
          <mxGeometry x="1" relative="1" as="geometry">
            <mxPoint x="-2" y="-8" as="offset" />
          </mxGeometry>
        </mxCell>
        <mxCell id="GkLITIsvFdWkyiCTaT3H-23" value="" style="endArrow=none;html=1;edgeStyle=orthogonalEdgeStyle;rounded=0;exitX=1;exitY=0.5;exitDx=0;exitDy=0;entryX=0.006;entryY=0.758;entryDx=0;entryDy=0;entryPerimeter=0;" parent="1" source="GkLITIsvFdWkyiCTaT3H-6" target="GkLITIsvFdWkyiCTaT3H-10" edge="1">
          <mxGeometry relative="1" as="geometry">
            <mxPoint x="496" y="214" as="sourcePoint" />
            <mxPoint x="580" y="198" as="targetPoint" />
            <Array as="points">
              <mxPoint x="610" y="198" />
              <mxPoint x="610" y="200" />
            </Array>
          </mxGeometry>
        </mxCell>
        <mxCell id="GkLITIsvFdWkyiCTaT3H-24" value="1" style="edgeLabel;resizable=0;html=1;align=left;verticalAlign=bottom;" parent="GkLITIsvFdWkyiCTaT3H-23" connectable="0" vertex="1">
          <mxGeometry x="-1" relative="1" as="geometry">
            <mxPoint x="105" as="offset" />
          </mxGeometry>
        </mxCell>
        <mxCell id="GkLITIsvFdWkyiCTaT3H-25" value="n" style="edgeLabel;resizable=0;html=1;align=right;verticalAlign=bottom;" parent="GkLITIsvFdWkyiCTaT3H-23" connectable="0" vertex="1">
          <mxGeometry x="1" relative="1" as="geometry">
            <mxPoint x="-108" y="-2" as="offset" />
          </mxGeometry>
        </mxCell>
      </root>
    </mxGraphModel>
  </diagram>
</mxfile>
